<?xml version="1.0" standalone="no"?><!DOCTYPE svg PUBLIC "-//W3C//DTD SVG 1.1//EN" "http://www.w3.org/Graphics/SVG/1.1/DTD/svg11.dtd"><svg width="808" height="400"><defs></defs><rect x="2" y="2" width="805" height="397" fill="none" style="stroke: rgb(2, 111, 193); fill-opacity: 1; stroke-opacity: 1; stroke-width: 2;"></rect><text style="font-size:10px;font-family:'Arial', sans-serif" fill="#000000" class="vennchart-title" x="404" y="5"></text><text style="font-size:10px;font-family:'Arial', sans-serif" fill="#000000" class="vennchart-subtitle" x="404" y="10"></text><g class="venn-area venn-circle venn-sets-2"><path d="
M 301.6062002202806 188.26375984125931 
m -136.0449208790994 0 
a 136.0449208790994 136.0449208790994 0 1 0 272.0898417581988 0 
a 136.0449208790994 136.0449208790994 0 1 0 -272.0898417581988 0" style="fill-opacity: 0.25; fill: rgb(44, 160, 44); stroke-opacity: 0; stroke: red; stroke-width: 0;"></path><text text-anchor="middle" dy=".35em" x="260" y="175" style="fill: rgb(44, 160, 44);"><tspan x="260" y="175" dy="0.35em">Trip Advisor</tspan></text></g><g class="venn-area venn-circle venn-sets-1"><path d="
M 373.23730095687665 299.24135057193297 
m -76.75864942806702 0 
a 76.75864942806702 76.75864942806702 0 1 0 153.51729885613403 0 
a 76.75864942806702 76.75864942806702 0 1 0 -153.51729885613403 0" style="fill-opacity: 0.25; fill: rgb(255, 127, 14); stroke-opacity: 0; stroke: red; stroke-width: 0;"></path><text text-anchor="middle" dy=".35em" x="372" y="341" style="fill: rgb(255, 127, 14);"><tspan x="372" y="341" dy="-0.20000000000000007em">La</tspan><tspan x="372" y="341" dy="0.9em">Fourchette</tspan></text></g><g class="venn-area venn-circle venn-sets-0"><path d="
M 490.17806475801467 188.26065590080415 
m -152.26065590080415 0 
a 152.26065590080415 152.26065590080415 0 1 0 304.5213118016083 0 
a 152.26065590080415 152.26065590080415 0 1 0 -304.5213118016083 0" style="fill-opacity: 0.25; fill: rgb(31, 119, 180); stroke-opacity: 0; stroke: red; stroke-width: 0;"></path><text text-anchor="middle" dy=".35em" x="523" y="182" style="fill: rgb(31, 119, 180);"><tspan x="523" y="182" dy="0.35em">New Savour</tspan></text></g><g class="venn-area venn-intersection venn-sets-0_2"><path d="
M 383.49430935222927 79.62418105068004 
A 136.0449208790994 136.0449208790994 0 0 1 383.49788577759455 296.90064277510663 
A 152.26065590080415 152.26065590080415 0 0 1 383.49430935222927 79.62418105068004" style="fill-opacity: 0; stroke-opacity: 0; stroke: red; stroke-width: 0;"></path></g><g class="venn-area venn-intersection venn-sets-1_2"><path d="
M 300.6861107568489 324.3055693425288 
A 76.75864942806702 76.75864942806702 0 0 1 425.9553807788778 243.44982503353236 
A 136.0449208790994 136.0449208790994 0 0 1 300.6861107568489 324.3055693425288" style="fill-opacity: 0; stroke-opacity: 0; stroke: red; stroke-width: 0;"></path></g><g class="venn-area venn-intersection venn-sets-0_1"><path d="
M 343.34274527743645 228.54336048204613 
A 76.75864942806702 76.75864942806702 0 0 1 442.27627317634557 332.789980602089 
A 152.26065590080415 152.26065590080415 0 0 1 343.34274527743645 228.54336048204613" style="fill-opacity: 0; stroke-opacity: 0; stroke: red; stroke-width: 0;"></path></g><g class="venn-area venn-intersection venn-sets-0_1_2"><path d="
M 343.34274527743645 228.54336048204613 
A 76.75864942806702 76.75864942806702 0 0 1 425.9553807788778 243.44982503353236 
A 136.0449208790994 136.0449208790994 0 0 1 383.49788577759455 296.90064277510663 
A 152.26065590080415 152.26065590080415 0 0 1 343.34274527743645 228.54336048204613" style="fill-opacity: 0; stroke-opacity: 0; stroke: red; stroke-width: 0;"></path></g></svg>